G04 #@! TF.FileFunction,Copper,L1,Top,Signal*
%FSLAX46Y46*%
G04 Gerber Fmt 4.6, Leading zero omitted, Abs format (unit mm)*
G04 Created by KiCad (PCBNEW 4.0.5-e0-6337~49~ubuntu16.04.1) date Tue Jan  3 21:15:41 2017*
%MOMM*%
%LPD*%
G01*
G04 APERTURE LIST*
%ADD10C,0.100000*%
%ADD11O,1.100000X2.400000*%
%ADD12R,2.400000X1.100000*%
%ADD13O,2.400000X1.100000*%
%ADD14R,1.300000X1.500000*%
%ADD15R,2.032000X1.727200*%
%ADD16O,2.032000X1.727200*%
%ADD17C,0.685800*%
%ADD18C,0.254000*%
G04 APERTURE END LIST*
D10*
D11*
X151199000Y-120855200D03*
X153199000Y-120855200D03*
X155199000Y-120855200D03*
X157199000Y-120855200D03*
X159199000Y-120855200D03*
X161199000Y-120855200D03*
D12*
X148209000Y-105105200D03*
D13*
X148209000Y-107105200D03*
X148209000Y-109105200D03*
X148209000Y-111105200D03*
X148209000Y-113105200D03*
X148209000Y-115105200D03*
X148209000Y-117105200D03*
X148209000Y-119105200D03*
X164209000Y-119105200D03*
X164209000Y-117105200D03*
X164209000Y-115105200D03*
X164209000Y-113105200D03*
X164209000Y-111105200D03*
X164209000Y-109105200D03*
X164209000Y-107105200D03*
X164209000Y-105105200D03*
D14*
X149758400Y-129721600D03*
X149758400Y-127021600D03*
X153060400Y-129721600D03*
X153060400Y-127021600D03*
X156362400Y-129721600D03*
X156362400Y-127021600D03*
X159664400Y-129721600D03*
X159664400Y-127021600D03*
X162966400Y-129721600D03*
X162966400Y-127021600D03*
D15*
X167640000Y-119380000D03*
D16*
X167640000Y-116840000D03*
X167640000Y-114300000D03*
X167640000Y-111760000D03*
X167640000Y-109220000D03*
X167640000Y-106680000D03*
X167640000Y-104140000D03*
X167640000Y-101600000D03*
D15*
X144780000Y-119380000D03*
D16*
X144780000Y-116840000D03*
X144780000Y-114300000D03*
X144780000Y-111760000D03*
X144780000Y-109220000D03*
X144780000Y-106680000D03*
X144780000Y-104140000D03*
X144780000Y-101600000D03*
D17*
X153035000Y-123952000D03*
X153035000Y-109093000D03*
X161798000Y-123952000D03*
X161798000Y-117094000D03*
X159639000Y-123952000D03*
X159639000Y-115062000D03*
X156337000Y-123952000D03*
X156337000Y-113157000D03*
X150622000Y-123952000D03*
X150622000Y-105156000D03*
D18*
X148209000Y-117105200D02*
X145045200Y-117105200D01*
X145045200Y-117105200D02*
X144780000Y-116840000D01*
X148209000Y-115105200D02*
X145585200Y-115105200D01*
X145585200Y-115105200D02*
X144780000Y-114300000D01*
X148209000Y-113105200D02*
X146125200Y-113105200D01*
X146125200Y-113105200D02*
X144780000Y-111760000D01*
X148209000Y-111105200D02*
X146665200Y-111105200D01*
X146665200Y-111105200D02*
X144780000Y-109220000D01*
X148209000Y-109105200D02*
X153022800Y-109105200D01*
X153060400Y-123977400D02*
X153060400Y-127021600D01*
X153035000Y-123952000D02*
X153060400Y-123977400D01*
X153022800Y-109105200D02*
X153035000Y-109093000D01*
X148209000Y-109105200D02*
X147205200Y-109105200D01*
X147205200Y-109105200D02*
X144780000Y-106680000D01*
X148209000Y-107105200D02*
X147491200Y-107105200D01*
X147491200Y-107105200D02*
X144780000Y-104394000D01*
X144780000Y-104394000D02*
X144780000Y-104140000D01*
X149758400Y-129721600D02*
X153060400Y-129721600D01*
X153060400Y-129721600D02*
X156362400Y-129721600D01*
X156362400Y-129721600D02*
X159664400Y-129721600D01*
X148209000Y-119105200D02*
X148209000Y-129413000D01*
X148517600Y-129721600D02*
X149758400Y-129721600D01*
X148209000Y-129413000D02*
X148517600Y-129721600D01*
X148209000Y-119105200D02*
X145054800Y-119105200D01*
X145054800Y-119105200D02*
X144780000Y-119380000D01*
X164209000Y-117105200D02*
X161809200Y-117105200D01*
X162966400Y-125120400D02*
X162966400Y-127021600D01*
X161798000Y-123952000D02*
X162966400Y-125120400D01*
X161809200Y-117105200D02*
X161798000Y-117094000D01*
X164209000Y-117105200D02*
X167374800Y-117105200D01*
X167374800Y-117105200D02*
X167640000Y-116840000D01*
X164209000Y-115105200D02*
X159682200Y-115105200D01*
X159664400Y-123977400D02*
X159664400Y-127021600D01*
X159639000Y-123952000D02*
X159664400Y-123977400D01*
X159682200Y-115105200D02*
X159639000Y-115062000D01*
X164209000Y-115105200D02*
X166834800Y-115105200D01*
X166834800Y-115105200D02*
X167640000Y-114300000D01*
X164209000Y-113105200D02*
X156388800Y-113105200D01*
X156362400Y-123977400D02*
X156362400Y-127021600D01*
X156337000Y-123952000D02*
X156362400Y-123977400D01*
X156388800Y-113105200D02*
X156337000Y-113157000D01*
X164209000Y-113105200D02*
X166294800Y-113105200D01*
X166294800Y-113105200D02*
X167640000Y-111760000D01*
X164209000Y-111105200D02*
X165754800Y-111105200D01*
X165754800Y-111105200D02*
X167640000Y-109220000D01*
X164209000Y-109105200D02*
X165214800Y-109105200D01*
X165214800Y-109105200D02*
X167640000Y-106680000D01*
X164209000Y-107105200D02*
X164674800Y-107105200D01*
X164674800Y-107105200D02*
X167640000Y-104140000D01*
X164209000Y-119105200D02*
X164209000Y-129411000D01*
X163898400Y-129721600D02*
X162966400Y-129721600D01*
X164209000Y-129411000D02*
X163898400Y-129721600D01*
X164209000Y-119105200D02*
X167365200Y-119105200D01*
X167365200Y-119105200D02*
X167640000Y-119380000D01*
X148209000Y-105105200D02*
X150571200Y-105105200D01*
X149758400Y-124815600D02*
X149758400Y-127021600D01*
X150622000Y-123952000D02*
X149758400Y-124815600D01*
X150571200Y-105105200D02*
X150622000Y-105156000D01*
X148209000Y-105105200D02*
X148209000Y-102870000D01*
X146939000Y-101600000D02*
X144780000Y-101600000D01*
X148209000Y-102870000D02*
X146939000Y-101600000D01*
X164209000Y-105105200D02*
X164209000Y-102995000D01*
X165604000Y-101600000D02*
X167640000Y-101600000D01*
X164209000Y-102995000D02*
X165604000Y-101600000D01*
M02*
