M48
;DRILL file {KiCad 4.0.5-e0-6337~49~ubuntu16.04.1} date Tue Jan  3 21:15:49 2017
;FORMAT={-:-/ absolute / inch / decimal}
FMAT,2
INCH,TZ
T1C0.013
T2C0.040
%
G90
G05
M72
T1
X5.93Y-4.14
X5.93Y-4.88
X6.025Y-4.295
X6.025Y-4.88
X6.155Y-4.455
X6.155Y-4.88
X6.285Y-4.53
X6.285Y-4.88
X6.37Y-4.61
X6.37Y-4.88
T2
X5.7Y-4.
X5.7Y-4.1
X5.7Y-4.2
X5.7Y-4.3
X5.7Y-4.4
X5.7Y-4.5
X5.7Y-4.6
X5.7Y-4.7
X6.6Y-4.
X6.6Y-4.1
X6.6Y-4.2
X6.6Y-4.3
X6.6Y-4.4
X6.6Y-4.5
X6.6Y-4.6
X6.6Y-4.7
T0
M30
